<svg clip-rule="evenodd" fill-rule="evenodd" stroke-linejoin="round" stroke-miterlimit="1.41421" viewBox="0 0 65 65" xmlns="http://www.w3.org/2000/svg" xmlns:xlink="http://www.w3.org/1999/xlink"><clipPath id="a"><path clip-rule="evenodd" d="m0 0h65v65h-65z"/></clipPath><path d="m0 0h65v65h-65z" fill="none"/><g clip-path="url(#a)" fill-rule="nonzero"><path d="m55.481 9.519c-6.138-6.138-14.3-9.519-22.981-9.519-8.681 0-16.843 3.381-22.981 9.519-6.138 6.139-9.519 14.3-9.519 22.981 0 8.681 3.381 16.843 9.519 22.981 6.139 6.138 14.3 9.519 22.981 9.519 8.681 0 16.843-3.381 22.981-9.519 6.138-6.139 9.519-14.3 9.519-22.981 0-8.681-3.381-16.843-9.519-22.981zm4.774 35.405h-4.841c1.124-3.572 1.755-7.411 1.85-11.371h5.61c-.134 3.979-1.03 7.826-2.619 11.371zm-58.129-11.371h5.61c.095 3.96.726 7.799 1.85 11.371h-4.841c-1.589-3.545-2.485-7.392-2.619-11.371zm2.619-13.477h4.841c-1.124 3.572-1.755 7.411-1.85 11.371h-5.61c.134-3.979 1.03-7.826 2.619-11.371zm41.295 11.371c-.051-3.962-.389-7.802-.988-11.371h8.138c1.172 3.492 1.865 7.333 1.968 11.371zm-6.469 24.709h-6.018v-9.126h8.96c-.564 2.663-1.286 5.128-2.156 7.318-.253.635-.515 1.237-.786 1.808zm-6.018 6.596v-4.491h4.892c-1.5 2.477-3.185 4.033-4.892 4.491zm-6.998-4.491h4.892v4.491c-1.707-.458-3.392-2.014-4.892-4.491zm-1.912-3.913c-.87-2.19-1.592-4.655-2.156-7.318h8.96v9.126h-6.018c-.271-.571-.533-1.173-.786-1.808zm.786-45.504h6.018v9.126h-8.96c.564-2.663 1.286-5.128 2.156-7.318.253-.635.515-1.237.786-1.808zm6.018-6.596v4.491h-4.892c1.5-2.477 3.185-4.033 4.892-4.491zm6.998 4.491h-4.892v-4.491c1.707.458 3.392 2.014 4.892 4.491zm1.912 3.913c.87 2.19 1.592 4.655 2.156 7.318h-8.96v-9.126h6.018c.271.571.533 1.173.786 1.808zm-8.91 9.424v11.371h-10.381c.052-3.978.4-7.823 1.017-11.371zm0 13.477v11.371h-9.364c-.617-3.548-.965-7.393-1.017-11.371zm2.106 11.371v-11.371h10.381c-.052 3.978-.4 7.823-1.017 11.371zm0-13.477v-11.371h9.364c.617 3.548.965 7.393 1.017 11.371zm11.108-13.477c-.601-2.95-1.388-5.68-2.348-8.095-.14-.353-.283-.695-.429-1.031h4.835c2.314 2.505 4.255 5.604 5.691 9.126zm-3.793-11.231c-.748-1.397-1.553-2.589-2.405-3.564 2.164.791 4.199 2.002 6.055 3.564zm-16.736 0h-3.65c1.856-1.562 3.891-2.773 6.055-3.564-.852.975-1.657 2.167-2.405 3.564zm-1.016 2.105c-.146.336-.289.678-.429 1.031-.96 2.415-1.747 5.145-2.348 8.095h-7.749c1.436-3.522 3.377-6.621 5.691-9.126zm-3.168 11.232c-.599 3.569-.937 7.409-.988 11.371h-9.118c.103-4.038.796-7.879 1.968-11.371zm-10.106 13.477h9.118c.051 3.962.389 7.802.988 11.371h-8.138c-1.172-3.492-1.865-7.333-1.968-11.371zm10.497 13.477c.601 2.95 1.388 5.68 2.348 8.095.14.353.283.695.429 1.031h-4.835c-2.314-2.505-4.255-5.604-5.691-9.126zm3.793 11.231c.748 1.397 1.553 2.589 2.405 3.564-2.164-.791-4.199-2.002-6.055-3.564zm16.736 0h3.65c-1.856 1.562-3.891 2.773-6.055 3.564.852-.975 1.657-2.167 2.405-3.564zm1.016-2.105c.146-.336.289-.678.429-1.031.96-2.415 1.747-5.145 2.348-8.095h7.749c-1.436 3.522-3.377 6.621-5.691 9.126zm3.168-11.232c.599-3.569.937-7.409.988-11.371h9.118c-.103 4.038-.796 7.879-1.968 11.371zm12.212-13.477c-.095-3.96-.726-7.799-1.85-11.371h4.841c1.589 3.545 2.485 7.392 2.619 11.371zm1.946-13.477h-4.527c-1.16-3.043-2.692-5.857-4.566-8.341-.202-.267-.407-.527-.615-.785h2.085c.833.675 1.636 1.396 2.405 2.164 2.092 2.092 3.839 4.436 5.218 6.962zm-10.562-11.231h-1.023c-.503-.51-1.019-.993-1.547-1.448.878.439 1.736.922 2.57 1.448zm-31.273 0h-1.023c.834-.526 1.692-1.009 2.57-1.448-.528.455-1.044.938-1.547 1.448zm-6.367 4.269c.769-.768 1.572-1.489 2.405-2.164h2.085c-.208.258-.413.518-.615.785-1.874 2.484-3.406 5.298-4.566 8.341h-4.527c1.379-2.526 3.126-4.87 5.218-6.962zm-5.218 36.022h4.527c1.16 3.043 2.692 5.857 4.566 8.341.202.267.407.527.615.785h-2.085c-.833-.675-1.636-1.396-2.405-2.164-2.092-2.092-3.839-4.436-5.218-6.962zm10.562 11.231h1.023c.503.51 1.019.993 1.547 1.448-.878-.439-1.736-.922-2.57-1.448zm31.273 0h1.023c-.834.526-1.692 1.009-2.57 1.448.528-.455 1.044-.938 1.547-1.448zm6.367-4.269c-.768.768-1.572 1.489-2.404 2.164h-2.086c.208-.258.414-.518.615-.785 1.874-2.484 3.406-5.298 4.566-8.341h4.527c-1.379 2.526-3.126 4.87-5.218 6.962z"/></g></svg>